<svg xmlns="http://www.w3.org/2000/svg" version="1.1" xmlns:xlink="http://www.w3.org/1999/xlink" viewBox="0 0 200 200"><rect width="200" height="200" fill="url('#gradient')"></rect><defs><linearGradient id="gradient" gradientTransform="rotate(226 0.5 0.5)"><stop offset="0%" stop-color="#e8d4de"></stop><stop offset="100%" stop-color="#bdcabc"></stop></linearGradient></defs><g><g fill="#d13a80" transform="matrix(2.3588973728484537,0,0,2.3588973728484537,9.415021169494175,112.52824562004132)" stroke="#d21d81" stroke-width="0.65"><path d="M9.17-4.81L12.58-4.81Q12.51-3.33 11.78-2.19Q11.04-1.05 9.72-0.43Q8.40 0.20 6.70 0.20L6.70 0.20Q3.90 0.20 2.29-1.63Q0.67-3.46 0.67-6.79L0.67-6.79L0.67-7.49Q0.67-9.58 1.40-11.15Q2.13-12.71 3.50-13.57Q4.86-14.42 6.66-14.42L6.66-14.42Q9.25-14.42 10.82-13.06Q12.39-11.70 12.61-9.31L12.61-9.31L9.19-9.31Q9.15-10.61 8.54-11.17Q7.92-11.74 6.66-11.74L6.66-11.74Q5.38-11.74 4.79-10.78Q4.19-9.82 4.16-7.72L4.16-7.72L4.16-6.72Q4.16-4.44 4.73-3.47Q5.30-2.49 6.70-2.49L6.70-2.49Q7.88-2.49 8.51-3.05Q9.13-3.60 9.17-4.81L9.17-4.81ZM17.52-10.57L17.52 0L14.22 0L14.22-10.57L17.52-10.57ZM14.02-13.29L14.02-13.29Q14.02-13.99 14.53-14.44Q15.04-14.89 15.85-14.89Q16.66-14.89 17.17-14.44Q17.68-13.99 17.68-13.29Q17.68-12.59 17.17-12.14Q16.66-11.69 15.85-11.69Q15.04-11.69 14.53-12.14Q14.02-12.59 14.02-13.29ZM20.09-13.19L23.38-13.19L23.38-10.57L25.12-10.57L25.12-8.28L23.38-8.28L23.38-3.45Q23.38-2.85 23.59-2.62Q23.81-2.38 24.44-2.38L24.44-2.38Q24.93-2.38 25.26-2.44L25.26-2.44L25.26-0.09Q24.38 0.20 23.41 0.20L23.41 0.20Q21.71 0.20 20.90-0.61Q20.09-1.41 20.09-3.04L20.09-3.04L20.09-8.28L18.74-8.28L18.74-10.57L20.09-10.57L20.09-13.19ZM28.96-10.57L30.63-4.61L32.39-10.57L35.92-10.57L31.61 1.77L31.43 2.22Q30.51 4.27 28.18 4.27L28.18 4.27Q27.54 4.27 26.83 4.07L26.83 4.07L26.83 1.72L27.26 1.72Q27.95 1.72 28.32 1.52Q28.68 1.32 28.86 0.80L28.86 0.80L29.12 0.10L25.45-10.57L28.96-10.57ZM44.26-3.78L44.26-3.78Q44.26-4.53 43.73-4.95Q43.19-5.37 41.86-5.82Q40.52-6.27 39.67-6.69L39.67-6.69Q36.90-8.05 36.90-10.42L36.90-10.42Q36.90-11.60 37.59-12.50Q38.28-13.41 39.54-13.91Q40.80-14.41 42.37-14.41L42.37-14.41Q43.91-14.41 45.12-13.87Q46.34-13.32 47.01-12.31Q47.69-11.30 47.69-10L47.69-10L44.27-10Q44.27-10.87 43.74-11.35Q43.20-11.83 42.29-11.83L42.29-11.83Q41.38-11.83 40.84-11.42Q40.31-11.02 40.31-10.39L40.31-10.39Q40.31-9.84 40.90-9.40Q41.48-8.96 42.96-8.48Q44.43-8.01 45.38-7.46L45.38-7.46Q47.69-6.13 47.69-3.80L47.69-3.80Q47.69-1.93 46.28-0.87Q44.87 0.20 42.42 0.20L42.42 0.20Q40.69 0.20 39.29-0.42Q37.89-1.04 37.18-2.12Q36.47-3.20 36.47-4.61L36.47-4.61L39.91-4.61Q39.91-3.47 40.50-2.92Q41.09-2.38 42.42-2.38L42.42-2.38Q43.27-2.38 43.76-2.75Q44.26-3.12 44.26-3.78ZM49.83-13.19L53.13-13.19L53.13-10.57L54.86-10.57L54.86-8.28L53.13-8.28L53.13-3.45Q53.13-2.85 53.34-2.62Q53.55-2.38 54.19-2.38L54.19-2.38Q54.68-2.38 55.01-2.44L55.01-2.44L55.01-0.09Q54.12 0.20 53.15 0.20L53.15 0.20Q51.46 0.20 50.64-0.61Q49.83-1.41 49.83-3.04L49.83-3.04L49.83-8.28L48.49-8.28L48.49-10.57L49.83-10.57L49.83-13.19ZM65.40 0L62.11 0Q61.93-0.32 61.80-0.95L61.80-0.95Q60.89 0.20 59.26 0.20L59.26 0.20Q57.76 0.20 56.72-0.71Q55.67-1.61 55.67-2.98L55.67-2.98Q55.67-4.70 56.94-5.58Q58.21-6.46 60.63-6.46L60.63-6.46L61.65-6.46L61.65-7.01Q61.65-8.47 60.39-8.47L60.39-8.47Q59.22-8.47 59.22-7.31L59.22-7.31L55.93-7.31Q55.93-8.85 57.23-9.80Q58.54-10.76 60.56-10.76Q62.58-10.76 63.75-9.78Q64.92-8.79 64.95-7.07L64.95-7.07L64.95-2.39Q64.97-0.94 65.40-0.17L65.40-0.17L65.40 0ZM60.05-2.15L60.05-2.15Q60.66-2.15 61.07-2.41Q61.47-2.68 61.65-3.01L61.65-3.01L61.65-4.70L60.69-4.70Q58.97-4.70 58.97-3.15L58.97-3.15Q58.97-2.71 59.28-2.43Q59.58-2.15 60.05-2.15ZM69.18-10.57L70.85-4.61L72.61-10.57L76.13-10.57L71.83 1.77L71.64 2.22Q70.72 4.27 68.40 4.27L68.40 4.27Q67.75 4.27 67.04 4.07L67.04 4.07L67.04 1.72L67.47 1.72Q68.16 1.72 68.53 1.52Q68.90 1.32 69.07 0.80L69.07 0.80L69.34 0.10L65.66-10.57L69.18-10.57Z"></path></g></g></svg>